# AST/ASF file generated using VICON BodyLanguage
# -----------------------------------------------
:version 1.10
:name VICON
:units
  mass 1.0
  length 0.45
  angle deg
:documentation
   .ast/.asf automatically generated from VICON data using
   VICON BodyBuilder and BodyLanguage model FoxedUp or BRILLIANT.MOD
:root
   order TX TY TZ RX RY RZ
   axis XYZ
   position 0 0 0  
   orientation 0 0 0 
:bonedata
  begin
     id 1 
     name lhipjoint
     direction 0.558404 -0.748506 0.357664 
     length 2.4234 
     axis 0 0 0  XYZ
  end
  begin
     id 2 
     name lfemur
     direction 0.34202 -0.939693 0  
     length 7.14567  
     axis 0 0 20  XYZ
    dof rx ry rz
    limits (-160.0 20.0)
           (-70.0 70.0)
           (-60.0 70.0)
  end
  begin
     id 3 
     name ltibia
     direction 0.34202 -0.939693 0   
     length 8.13956   
     axis 0 0 20   XYZ
    dof rx
    limits (-10.0 170.0)
  end
  begin
     id 4 
     name lfoot
     direction 0.0791314 -0.217412 0.972867   
     length 2.00134   
     axis -90 7.62852e-016 20   XYZ
    dof rx rz
    limits (-45.0 90.0)
           (-70.0 20.0)
  end
  begin
     id 5 
     name ltoes
     direction 1.53547e-011 -4.21922e-011 1   
     length 1.00735   
     axis -90 7.62852e-016 20   XYZ
    dof rx
    limits (-90.0 20.0)
  end
  begin
     id 6 
     name rhipjoint
     direction -0.496392 -0.78327 0.374276   
     length 2.31584  
     axis 0 0 0  XYZ 
  end
  begin
     id 7 
     name rfemur
     direction -0.34202 -0.939693 0   
     length 7.47417   
     axis 0 0 -20   XYZ
    dof rx ry rz
    limits (-160.0 20.0)
           (-70.0 70.0)
           (-70.0 60.0)
  end
  begin
     id 8 
     name rtibia
     direction -0.34202 -0.939693 0   
     length 7.69071   
     axis 0 0 -20   XYZ
    dof rx
    limits (-10.0 170.0)
 end
 begin
     id 9 
     name rfoot
     direction -0.103069 -0.28318 0.953512   
     length 2.16135  
     axis -90 -7.62852e-016 -20   XYZ
    dof rx rz
    limits (-45.0 90.0)
           (-20.0 70.0)
  end
  begin
     id 10 
     name rtoes
     direction -1.53581e-011 -4.21904e-011 1   
     length 1.07867   
     axis -90 -7.62852e-016 -20   XYZ
    dof rx
    limits (-90.0 20.0)
  end
  begin
     id 11 
     name lowerback
     direction -0.0258961 0.994776 -0.0987407   
     length 2.19412   
     axis 0 0 0   XYZ
    dof rx ry rz
    limits (-20.0 45.0)
           (-30.0 30.0)
           (-30.0 30.0)
  end
  begin
     id 12 
     name upperback
     direction 0.0402454 0.999185 0.00320666   
     length 2.18445   
     axis 0 0 0   XYZ
    dof rx ry rz
    limits (-20.0 45.0)
           (-30.0 30.0)
           (-30.0 30.0)
  end
  begin
     id 13 
     name thorax
     direction 0.0519376 0.997415 0.0496558   
     length 2.21487   
     axis 0 0 0   XYZ
    dof rx ry rz
    limits (-20.0 45.0)
           (-30.0 30.0)
           (-30.0 30.0)
  end
  begin
     id 14 
     name lowerneck
     direction -0.0921276 0.983211 0.157506   
     length 1.61201   
     axis 0 0 0   XYZ
    dof rx ry rz
    limits (-20.0 45.0)
           (-30.0 30.0)
           (-30.0 30.0)
  end
  begin
     id 15 
     name upperneck
     direction 0.0820814 0.98162 -0.172292   
     length 1.65275   
     axis 0 0 0   XYZ
    dof rx ry rz
    limits (-20.0 45.0)
           (-30.0 30.0)
           (-30.0 30.0)
  end
  begin
     id 16
     name head
     direction 0.0336554 0.996413 -0.0776455  
     length 1.66415  
     axis 0 0 0   XYZ
    dof rx ry rz
    limits (-20.0 45.0)
           (-30.0 30.0)
           (-30.0 30.0)
  end
  begin
     id 17 
     name lclavicle
     direction 0.94696 0.284418 -0.149576  
     length 3.41447  
     axis 0 0 0   XYZ
    dof ry rz
    limits (-20.0 10.0)
           (0.0 20.0)
  end
  begin
     id 18 
     name lhumerus
     direction 1 -0.000130264 -9.81312e-005   
     length 5.19964   
     axis 180 -30 -90   XYZ
    dof rx ry rz
    limits (-60.0 90.0)
           (-90.0 90.0)
           (-90.0 90.0)
  end
  begin
     id 19
     name lradius
     direction 1 -4.48961e-011 1.43854e-026   
     length 3.32189   
     axis 180 -30 -90   XYZ
    dof rx
    limits (-10.0 170.0)
  end
  begin
     id 20
     name lwrist
     direction 1 -4.48958e-011 3.1502e-026   
     length 1.66095   
     axis -1.97692e-014 90 90   XYZ
    dof ry
    limits (-180.0 0.0)
 end
  begin
     id 21 
     name lhand
     direction 1 -4.48927e-011 6.3004e-026   
     length 0.645616   
     axis -4.02019e-014 90 90   XYZ
    dof rx rz
    limits (-90.0 90.0)
           (-45.0 45.0)
  end
  begin
     id 22 
     name lfingers
     direction 1 -4.4904e-011 1.26008e-025   
     length 0.520512   
     axis -8.04039e-014 90 90   XYZ
    dof rx
    limits (0.0 90.0)
  end
  begin
     id 23
     name lthumb
     direction 0.707107 -6.34947e-011 0.707107   
     length 0.747354   
     axis -90 45 2.85299e-015   XYZ
    dof rx rz
    limits (-45.0 45.0)
           (-45.0 45.0)
  end
  begin
     id 24 
     name rclavicle
     direction -0.909391 0.383475 -0.161107   
     length 3.25176  
     axis 0 0 0   XYZ 
    dof ry rz
    limits (-10.0 20.0)
           (-20.0 0.0)
  end
  begin
     id 25 
     name rhumerus
     direction -1 -4.48965e-011 -1.81384e-027  
     length 5.6595   
     axis 180 30 90   XYZ
    dof rx ry rz
    limits (-90.0 60.0)
           (-90.0 90.0)
           (-90.0 90.0)
  end
  begin
     id 26 
     name rradius
     direction -1 -4.48996e-011 -8.09397e-027   
     length 3.37604   
     axis 180 30 90   XYZ
    dof rx
    limits (-10.0 170.0)
  end
  begin
     id 27 
     name rwrist
     direction -1 -4.48927e-011 -1.56669e-026   
     length 1.68802   
     axis 1.21142e-014 -90 -90   XYZ
    dof ry
    limits (-180.0 0.0)
  end
  begin
     id 28
     name rhand
     direction -1 -4.48912e-011 -3.13339e-026   
     length 0.824702   
     axis 1.99937e-014 -90 -90   XYZ
    dof rx rz
    limits (-90.0 90.0)
           (-45.0 45.0)
  end
  begin
     id 29
     name rfingers
     direction -1 -4.49011e-011 -6.26677e-026   
     length 0.664896   
     axis 3.99874e-014 -90 -90   XYZ
    dof rx
    limits (0.0 90.0)
  end
  begin
     id 30
     name rthumb
     direction -0.707107 -6.34931e-011 0.707107   
     length 0.954662   
     axis -90 -45 -2.85299e-015   XYZ
    dof rx rz
    limits (-45.0 45.0)
           (-45.0 45.0)
  end
:hierarchy
  begin
    root lhipjoint rhipjoint lowerback
    lhipjoint lfemur
    lfemur ltibia
    ltibia lfoot
    lfoot ltoes
    rhipjoint rfemur
    rfemur rtibia
    rtibia rfoot
    rfoot rtoes
    lowerback upperback
    upperback thorax
    thorax lowerneck lclavicle rclavicle
    lowerneck upperneck
    upperneck head
    lclavicle lhumerus
    lhumerus lradius
    lradius lwrist
    lwrist lhand lthumb
    lhand lfingers
    rclavicle rhumerus
    rhumerus rradius
    rradius rwrist
    rwrist rhand rthumb
    rhand rfingers
  end

#!OML:ASF F:\VICON\USERDATA\INSTALL\rory3\rory3.ASF
:FULLY-SPECIFIED
:DEGREES
461
root 6.62661 17.0305 3.82216 4.83021 40.5601 3.56366
lowerback 8.32256 0.538282 -4.82796
upperback 0.227019 0.404453 2.97165
thorax -4.49646 0.341122 5.79649
lowerneck 5.96885 -15.7363 -20.7557
upperneck -1.3714 -22.8728 25.9674
head 4.24127 -11.706 10.0079
rclavicle 1.63997e-014 2.38542e-014
rhumerus -12.2458 -14.944 -47.122
rradius 65.7617
rwrist -26.273
rhand -20.5811 17.7753
rfingers 7.12502
rthumb 5.77883 -12.1259
lclavicle 1.63997e-014 2.38542e-014
lhumerus -5.03937 40.179 30.5778
lradius 37.3253
lwrist 5.21585
lhand -10.4968 40.7587
lfingers 7.12502
lthumb 15.5052 70.157
rfemur -37.94 -0.808478 15.0503
rtibia 35.9998
rfoot 1.61361 1.44699
rtoes 19.9241
lfemur -3.76422 -14.8991 -21.9976
ltibia 35.5222
lfoot -27.7929 -16.4606
ltoes 11.8223
462
root 6.64046 17.0422 3.76701 5.05055 40.2694 3.82463
lowerback 8.18769 0.637297 -5.1598
upperback 0.446462 0.506566 2.86175
thorax -4.20654 0.382559 5.8555
lowerneck 6.0408 -15.655 -20.8529
upperneck -1.80544 -22.726 26.2828
head 4.12763 -11.6552 10.1661
rclavicle 4.78077e-014 2.38542e-015
rhumerus -12.4068 -14.9541 -47.7724
rradius 67.3023
rwrist -25.6783
rhand -20.0845 17.7861
rfingers 7.12502
rthumb 6.25825 -12.1014
lclavicle 4.78077e-014 2.38542e-015
lhumerus -7.9927 40.3774 28.0459
lradius 38.1668
lwrist 6.36848
lhand -10.3302 40.8265
lfingers 7.12502
lthumb 15.6657 70.2123
rfemur -37.7945 -0.870905 14.759
rtibia 35.4921
rfoot 1.79691 1.38267
rtoes 20.4083
lfemur -3.43691 -14.1753 -22.5281
ltibia 34.7689
lfoot -28.4672 -14.7642
ltoes 8.32395
463
root 6.64906 17.0577 3.7109 5.25407 39.7176 3.96411
lowerback 8.08485 0.843422 -5.44814
upperback 0.579636 0.755731 2.76134
thorax -4.04671 0.501918 5.88388
lowerneck 6.06705 -15.6206 -20.9346
upperneck -2.15206 -22.6435 26.4776
head 4.04254 -11.629 10.2649
rclavicle -4.40308e-014 -1.11319e-014
rhumerus -11.3902 -13.7879 -47.7502
rradius 67.4493
rwrist -25.8273
rhand -20.0096 17.9059
rfingers 7.12502
rthumb 6.33054 -11.9795
lclavicle -4.40308e-014 -1.11319e-014
lhumerus -11.2058 40.0423 25.4575
lradius 39.1349
lwrist 8.01648
lhand -10.8664 40.8747
lfingers 7.12502
lthumb 15.1492 70.3002
rfemur -37.7669 -0.538556 14.505
rtibia 34.8945
rfoot 2.06961 0.850755
rtoes 22.0569
lfemur -3.32275 -13.9755 -22.9147
ltibia 34.2006
lfoot -28.3917 -14.1891
ltoes 8.33554
464
root 6.66158 17.0804 3.64301 5.32959 39.1196 3.92716
lowerback 8.1412 1.05244 -5.46247
upperback 0.642718 1.02808 2.69927
thorax -4.05022 0.635343 5.79341
lowerneck 6.10649 -15.5657 -21.1956
upperneck -2.41023 -22.5659 26.6927
head 4.0065 -11.6037 10.3938
rclavicle 1.16388e-013 -2.46493e-014
rhumerus -10.4298 -12.0617 -47.6919
rradius 67.652
rwrist -26.8981
rhand -20.4308 17.877
rfingers 7.12502
rthumb 5.92392 -12.0202
lclavicle 1.16388e-013 -2.46493e-014
lhumerus -14.6737 39.8744 22.9331
lradius 40.1429
lwrist 9.01026
lhand -11.0819 40.6834
lfingers 7.12502
lthumb 14.9416 70.1244
rfemur -37.7201 -0.43978 14.4759
rtibia 34.2276
rfoot 2.34679 0.54583
rtoes 23.293
lfemur -3.23294 -14.1099 -23.1518
ltibia 33.8485
lfoot -28.2772 -13.842
ltoes 8.30607
465
root 6.67509 17.0889 3.56612 5.39196 38.8022 3.85263
lowerback 8.33863 1.08316 -5.29813
upperback 0.683643 1.07076 2.5986
thorax -4.11884 0.653655 5.58608
lowerneck 6.23698 -15.4279 -21.4226
upperneck -2.69335 -22.3882 27.0525
head 3.9411 -11.539 10.5962
rclavicle 5.4467e-014 -1.11319e-014
rhumerus -10.6957 -11.8288 -48.5377
rradius 69.2288
rwrist -26.6715
rhand -20.0863 17.8404
rfingers 7.12502
rthumb 6.25652 -12.0472
lclavicle 5.4467e-014 -1.11319e-014
lhumerus -18.2244 40.2853 20.3434
lradius 40.942
lwrist 9.14257
lhand -10.5109 40.1411
lfingers 7.12502
lthumb 15.4916 69.5404
rfemur -37.6969 -0.453311 14.3669
rtibia 33.5888
rfoot 2.9779 -0.0933518
rtoes 26.516
lfemur -3.36538 -14.6286 -23.3516
ltibia 33.7691
lfoot -28.1114 -13.6967
ltoes 9.27242
466
root 6.6808 17.0992 3.49788 5.73349 38.5446 4.16843
lowerback 8.39424 1.13047 -5.58043
upperback 0.815522 1.09833 2.4246
thorax -4.01739 0.663865 5.55945
lowerneck 6.03024 -15.4346 -21.5878
upperneck -2.82627 -22.3778 27.3877
head 4.00572 -11.5283 10.7136
rclavicle 7.95139e-015 1.66979e-014
rhumerus -10.6835 -11.5996 -49.3811
rradius 70.3809
rwrist -26.1434
rhand -19.7882 17.9465
rfingers 7.12502
rthumb 6.54432 -11.9324
lclavicle 7.95139e-015 1.66979e-014
lhumerus -21.573 40.8906 17.9193
lradius 41.5312
lwrist 8.98883
lhand -9.68401 39.5941
lfingers 7.12502
lthumb 16.2879 68.93
rfemur -37.7261 0.150908 13.6298
rtibia 33.0045
rfoot 2.14613 -0.71466
rtoes 28.0432
lfemur -3.8389 -15.0753 -23.8166
ltibia 33.8031
lfoot -27.6206 -13.8995
ltoes 11.4153
467
root 6.68145 17.1183 3.44839 6.10459 38.3284 4.65434
lowerback 8.40891 1.26563 -6.16549
upperback 0.972429 1.21775 2.24401
thorax -3.88595 0.722526 5.68828
lowerneck 5.7267 -15.5327 -21.7681
upperneck -2.86211 -22.4967 27.6989
head 4.14563 -11.5701 10.7881
rclavicle -8.61732e-014 -9.54166e-015
rhumerus -10.9679 -11.3126 -50.0156
rradius 71.5295
rwrist -25.4586
rhand -19.5664 18.1305
rfingers 7.12502
rthumb 6.75837 -11.7416
lclavicle -8.61732e-014 -9.54166e-015
lhumerus -24.6966 40.9736 15.9042
lradius 42.1757
lwrist 9.28202
lhand -9.83752 39.4876
lfingers 7.12502
lthumb 16.1401 68.8355
rfemur -37.6566 0.86307 12.793
rtibia 32.5664
rfoot 1.74389 -1.46964
rtoes 27.0329
lfemur -4.24581 -14.9308 -24.2362
ltibia 33.8537
lfoot -27.2978 -14.4038
ltoes 12.5797
